# xmcd
#
# Track frame offsets:
#	150
#	14749
#	28841
#	44852
#	62166
#	76608
#	97824
#	116821
#	134296
#	148393
#	156544
#	173876
#	186839
#	200075
#	212967
#	233085
#	250305
#	275008
#	294481
#	308236
#
# Disc length: 4403 seconds
#
# Revision: 1
# Processed by: cddbd v1.5.2PL0 Copyright (c) Steve Scherf et al.
# Submitted via: audiograbber 1.83.01
#
DISCID=3e113114
DTITLE=Steve Earle - Magnetised Motherfuckers CD1
DYEAR=2007
DGENRE=Country
TTITLE0=Continental Trailways Blues
TTITLE1=6 Days On The Road
TTITLE2=Honey Don't
TTITLE3=What's Your Name
TTITLE4=Johnny Too Bad
TTITLE5=Ellis Unit One
TTITLE6=Johnny Too Bad
TTITLE7=Crying, Waiting, Hoping
TTITLE8=Creepy Jackalope Eye
TTITLE9=Angel Is The Devil
TTITLE10=Before They Make Me Run
TTITLE11=In The Jailhouse Now
TTITLE12=Hot Enough For Ya
TTITLE13=Poison Love
TTITLE14=I Call On You
TTITLE15=Dallas
TTITLE16=Don't Take Your Guns To Town
TTITLE17=Desperados Waiting For A Train
TTITLE18=Dirty Old Town
TTITLE19=Me And The Eagle
EXTD=
EXTT0=
EXTT1=
EXTT2=
EXTT3=
EXTT4=
EXTT5=
EXTT6=
EXTT7=
EXTT8=
EXTT9=
EXTT10=
EXTT11=
EXTT12=
EXTT13=
EXTT14=
EXTT15=
EXTT16=
EXTT17=
EXTT18=
EXTT19=
PLAYORDER=
